<svg width="20" height="40" viewBox="0 0 20 40" fill="none" xmlns="http://www.w3.org/2000/svg">
<mask id="mask0_89_264" style="mask-type:alpha" maskUnits="userSpaceOnUse" x="0" y="0" width="20" height="40">
<rect x="0.5" y="0.5" width="19" height="39" rx="5.5" fill="#EF3E16" stroke="#EF3E16"/>
</mask>
<g mask="url(#mask0_89_264)">
<path fill-rule="evenodd" clip-rule="evenodd" d="M12.8331 24.4742L17.6661 29.1103L16.4609 30.2942L15.2554 31.4783L16.4248 32.5296L17.5939 33.5809L14.0775 36.9504C12.1434 38.8038 10.5615 40.3833 10.5621 40.4607C10.5626 40.538 12.6188 40.6459 15.1317 40.7006L19.7002 40.7998L23.4501 37.227L27.2 33.6541L26.0779 32.5504L24.9557 31.4466L26.0722 30.3486L27.1886 29.2505L22.3632 24.6097L27.5378 19.9689L22.3003 15.3885C24.9196 12.8694 27.0629 10.6799 27.0629 10.5231C27.0629 10.3665 26.6139 9.8202 26.0653 9.30945L25.0678 8.38085L26.0653 7.39978C26.6139 6.86006 27.0629 6.29901 27.0629 6.15281C27.0629 6.00661 25.4926 4.38225 23.5736 2.54336L20.084 -0.800194L15.2554 -0.800194L10.4269 -0.800194L14.0505 2.68792L17.6741 6.17631L16.5312 7.2738L15.3883 8.37156L16.5363 9.44827L17.6844 10.525L12.8422 15.1816L8 19.838L12.8331 24.4742Z" fill="#BF2A09"/>
</g>
</svg>
